<svg width="60" height="60" viewBox="0 0 60 60" fill="none" xmlns="http://www.w3.org/2000/svg">
<g clip-path="url(#clip0_524_88)">
<path d="M59.124 24.0078L53.0342 23.2471C52.5493 21.5957 51.8872 20.002 51.0601 18.4932L54.8311 13.644C55.1411 13.2456 55.106 12.6787 54.749 12.3218L47.6782 5.25098C47.3213 4.89453 46.7549 4.85938 46.3569 5.16895L41.5078 8.93994C39.999 8.1123 38.4048 7.4502 36.7529 6.96582L35.9922 0.875977C35.9297 0.375488 35.5044 0 35 0H25C24.4956 0 24.0703 0.375488 24.0078 0.875977L23.2471 6.96582C21.5952 7.4502 20.001 8.1123 18.4922 8.93994L13.6431 5.16895C13.2451 4.85938 12.6787 4.89453 12.3218 5.25098L5.25098 12.3218C4.89404 12.6787 4.85889 13.2456 5.16895 13.644L8.93994 18.4932C8.11279 20.002 7.45068 21.5957 6.96582 23.2471L0.875977 24.0078C0.375488 24.0703 0 24.4956 0 25V35C0 35.5044 0.375488 35.9297 0.875977 35.9922L6.96582 36.7529C7.45068 38.4043 8.11279 39.998 8.93994 41.5068L5.16895 46.356C4.85889 46.7544 4.89404 47.3213 5.25098 47.6782L12.3218 54.749C12.6787 55.1055 13.2451 55.1406 13.6431 54.8311L18.4922 51.0601C20.001 51.8877 21.5952 52.5498 23.2471 53.0342L24.0078 59.124C24.0703 59.6245 24.4956 60 25 60H35C35.5044 60 35.9297 59.6245 35.9922 59.124L36.7529 53.0342C38.4048 52.5498 39.999 51.8877 41.5078 51.0601L46.3569 54.8311C46.7549 55.1406 47.3213 55.1055 47.6782 54.749L54.749 47.6782C55.106 47.3213 55.1411 46.7544 54.8311 46.356L51.0601 41.5068C51.8872 39.998 52.5493 38.4043 53.0342 36.7529L59.124 35.9922C59.6245 35.9297 60 35.5044 60 35V25C60 24.4956 59.6245 24.0703 59.124 24.0078ZM58 34.1172L52.125 34.8521C51.7188 34.9023 51.3848 35.1953 51.2808 35.5908C50.7744 37.5195 50.0073 39.3696 49 41.0898C48.7935 41.4429 48.8223 41.8862 49.0732 42.209L52.7119 46.8882L46.8901 52.7109L42.2109 49.0708C41.8872 48.8198 41.4429 48.792 41.0898 49C39.3696 50.0088 37.519 50.7773 35.5898 51.2842C35.1948 51.3882 34.9023 51.7222 34.8521 52.1279L34.1172 58H25.8828L25.1479 52.125C25.0977 51.7192 24.8052 51.3853 24.4102 51.2808C22.481 50.7749 20.6309 50.0078 18.9102 49C18.5571 48.7935 18.1138 48.8228 17.791 49.0742L13.1118 52.7139L7.29004 46.8882L10.9292 42.209C11.1792 41.8857 11.2075 41.4424 11 41.0898C9.99219 39.3691 9.22412 37.5186 8.7168 35.5898C8.61328 35.1943 8.27881 34.9014 7.87305 34.8511L2 34.1172V25.8828L7.875 25.1479C8.28125 25.0977 8.61523 24.8047 8.71924 24.4092C9.22559 22.4805 9.99268 20.6304 11 18.9102C11.2065 18.5571 11.1777 18.1138 10.9268 17.791L7.29004 13.1118L13.1118 7.28906L17.791 10.9292C18.1143 11.1792 18.5576 11.2075 18.9102 11C20.6304 9.99121 22.481 9.22266 24.4102 8.71582C24.8052 8.61182 25.0977 8.27783 25.1479 7.87207L25.8828 2H34.1172L34.8521 7.875C34.9023 8.28076 35.1948 8.61475 35.5898 8.71924C37.519 9.2251 39.3691 9.99219 41.0898 11C41.4429 11.2065 41.8862 11.1772 42.209 10.9258L46.8882 7.28613L52.71 13.1089L49.0708 17.7881C48.8193 18.1118 48.7915 18.5566 49 18.9102C50.0078 20.6309 50.7759 22.4814 51.2832 24.4102C51.3867 24.8057 51.7212 25.0986 52.127 25.1489L58 25.8828V34.1172Z" fill="white"/>
<path d="M29 6H31V8H29V6Z" fill="white"/>
<path d="M12.3228 13.7358L13.7363 12.3213L15.1509 13.7354L13.7368 15.1494L12.3228 13.7358Z" fill="white"/>
<path d="M6 29H8V31H6V29Z" fill="white"/>
<path d="M12.3232 46.2642L13.7373 44.8496L15.1519 46.2642L13.7373 47.6782L12.3232 46.2642Z" fill="white"/>
<path d="M29 52H31V54H29V52Z" fill="white"/>
<path d="M44.8496 46.2632L46.2632 44.8486L47.6777 46.2627L46.2637 47.6772L44.8496 46.2632Z" fill="white"/>
<path d="M52 29H54V31H52V29Z" fill="white"/>
<path d="M44.8491 13.7358L46.2632 12.3218L47.6772 13.7358L46.2632 15.1504L44.8491 13.7358Z" fill="white"/>
<path d="M35.9869 14.085L35.2872 15.9561C42.3755 18.5928 46.4034 26.0825 44.6949 33.4502C42.9864 40.8174 36.0728 45.77 28.5479 45.0181C21.0225 44.2656 15.2261 38.042 15.0098 30.4824C14.794 22.9224 20.2251 16.3779 27.6949 15.1968L26.667 16.4219L28.2002 17.707L30.771 14.6431C31.126 14.2197 31.0713 13.5889 30.648 13.2339L27.584 10.6631L26.2979 12.1938L27.5 13.2051C19.0684 14.4897 12.9048 21.8398 13.1089 30.3667C13.3135 38.8931 19.8218 45.9399 28.3057 46.8193C36.7891 47.6987 44.6045 42.1372 46.5538 33.8335C48.503 25.5303 43.9781 17.0723 35.9888 14.085H35.9869Z" fill="white"/>
<path d="M28 31C28.5522 31 29 30.5522 29 30V26C29 25.4478 28.5522 25 28 25H24C23.4478 25 23 25.4478 23 26V28H25V27H27V29H24C23.4478 29 23 29.4478 23 30V34C23 34.5522 23.4478 35 24 35H29V33H25V31H28Z" fill="white"/>
<path d="M31 25V30C31 30.5522 31.4478 31 32 31H35V35H37V25H35V29H33V25H31Z" fill="white"/>
</g>
<defs>
<clipPath id="clip0_524_88">
<rect width="60" height="60" fill="white"/>
</clipPath>
</defs>
</svg>
