<svg width="39" height="39" viewBox="0 0 39 39" fill="none" xmlns="http://www.w3.org/2000/svg">
<path fill-rule="evenodd" clip-rule="evenodd" d="M35.4372 30.4821C37.5432 27.3301 38.6673 23.6245 38.6673 19.8337C38.6673 14.7503 36.648 9.87523 33.0535 6.28078C29.4591 2.68633 24.584 0.666992 19.5007 0.666992C15.7099 0.666992 12.0042 1.7911 8.85223 3.89716C5.70029 6.00322 3.24365 8.99664 1.79297 12.4989C0.342289 16.0011 -0.0372749 19.8549 0.702275 23.5729C1.44183 27.2909 3.26727 30.706 5.94778 33.3865C8.62829 36.067 12.0435 37.8925 15.7614 38.632C19.4794 39.3716 23.3332 38.992 26.8354 37.5414C30.3377 36.0907 33.3311 33.634 35.4372 30.4821ZM20.9125 14.0859C20.1319 13.3075 18.8687 13.3075 18.0881 14.0859L11.3223 20.8326C10.5401 21.6125 10.5383 22.8789 11.3183 23.661C12.0982 24.4432 13.3645 24.445 14.1467 23.665L19.5003 18.3266L24.854 23.665C25.6361 24.445 26.9024 24.4432 27.6824 23.661C28.4623 22.8789 28.4605 21.6125 27.6784 20.8326L20.9125 14.0859Z" fill="white"/>
</svg>
