<svg width="32" height="32" viewBox="0 0 32 32" fill="none" xmlns="http://www.w3.org/2000/svg">
<path d="M27.288 2.62176L19.7067 0.293763C18.0332 -0.21589 16.2267 -0.0489128 14.675 0.75883C13.1233 1.56657 11.9504 2.95065 11.408 4.61376L11.1573 5.33243H6.66667C4.89921 5.33455 3.20474 6.03761 1.95496 7.28739C0.705176 8.53717 0.00211714 10.2316 0 11.9991L0 25.3324C0.00211714 27.0999 0.705176 28.7944 1.95496 30.0441C3.20474 31.2939 4.89921 31.997 6.66667 31.9991H14.6667C15.6767 31.9956 16.6726 31.7614 17.5784 31.3145C18.4842 30.8676 19.2759 30.2198 19.8933 29.4204C20.1976 29.4646 20.5046 29.4877 20.812 29.4898C22.2437 29.4909 23.6374 29.0288 24.7849 28.1726C25.9324 27.3163 26.7721 26.1119 27.1787 24.7391L31.7333 10.8738C32.2199 9.19016 32.0269 7.38289 31.1958 5.84001C30.3646 4.29713 28.9616 3.14168 27.288 2.62176ZM14.6667 29.3324H6.66667C5.6058 29.3324 4.58839 28.911 3.83824 28.1609C3.08809 27.4107 2.66667 26.3933 2.66667 25.3324V11.9991C2.66667 10.9382 3.08809 9.92081 3.83824 9.17067C4.58839 8.42052 5.6058 7.9991 6.66667 7.9991H14.6667C15.7275 7.9991 16.7449 8.42052 17.4951 9.17067C18.2452 9.92081 18.6667 10.9382 18.6667 11.9991V25.3324C18.6667 26.3933 18.2452 27.4107 17.4951 28.1609C16.7449 28.911 15.7275 29.3324 14.6667 29.3324ZM29.1827 10.0831L24.6333 23.9498C24.4073 24.7169 23.9559 25.3983 23.3377 25.9057C22.7195 26.4131 21.9631 26.7229 21.1667 26.7951C21.2761 26.3152 21.332 25.8246 21.3333 25.3324V11.9991C21.3312 10.2316 20.6282 8.53717 19.3784 7.28739C18.1286 6.03761 16.4341 5.33455 14.6667 5.33243H13.9907C14.3348 4.36253 15.0396 3.5626 15.9584 3.09898C16.8772 2.63535 17.9394 2.54371 18.924 2.8431L26.5053 5.1711C27.5039 5.47923 28.3426 6.16517 28.8427 7.08273C29.3428 8.00029 29.4648 9.0769 29.1827 10.0831ZM16 17.3324C16 19.2658 13.9413 21.8538 12.3813 23.1698C11.902 23.5753 11.2945 23.7978 10.6667 23.7978C10.0388 23.7978 9.4313 23.5753 8.952 23.1698C7.392 21.8538 5.33333 19.2658 5.33333 17.3324C5.33333 16.6252 5.61428 15.9469 6.11438 15.4468C6.61448 14.9467 7.29276 14.6658 8 14.6658C8.70724 14.6658 9.38552 14.9467 9.88562 15.4468C10.3857 15.9469 10.6667 16.6252 10.6667 17.3324C10.6667 16.6252 10.9476 15.9469 11.4477 15.4468C11.9478 14.9467 12.6261 14.6658 13.3333 14.6658C14.0406 14.6658 14.7189 14.9467 15.219 15.4468C15.719 15.9469 16 16.6252 16 17.3324Z" fill="#A57A24"/>
</svg>
