<svg width="32" height="32" viewBox="0 0 32 32" fill="none" xmlns="http://www.w3.org/2000/svg">
<path d="M24.0003 16C19.5817 16 16.0003 19.5813 16.0003 24C16.0003 28.4187 19.5817 32 24.0003 32C28.419 32 32.0003 28.4187 32.0003 24C32.0003 19.5813 28.419 16 24.0003 16ZM28.4017 26.58C28.1977 28.02 26.9243 29.0667 25.4697 29.0667H25.0963V29.6107C25.0963 30.1933 24.6257 30.6667 24.043 30.6667H24.0163C23.435 30.6667 22.9643 30.192 22.9643 29.6107V29.0667H22.6977C21.7497 29.0667 20.9003 28.6333 20.3377 27.956C19.7803 27.284 20.2537 26.268 21.127 26.268C21.4297 26.268 21.807 26.4107 22.0123 26.6333C22.183 26.8187 22.4283 26.9347 22.699 26.9347H25.503C25.8737 26.9347 26.2123 26.6853 26.2843 26.3213C26.3683 25.8973 26.0897 25.5013 25.683 25.4187L21.9617 24.6733C20.479 24.376 19.4443 22.9653 19.6617 21.4213C19.8643 19.9813 21.139 18.9333 22.5937 18.9333H22.967V18.4C22.967 17.8107 23.4443 17.3333 24.0337 17.3333C24.623 17.3333 25.1003 17.8107 25.1003 18.4V18.9333H25.367C26.315 18.9333 27.1643 19.3653 27.727 20.044C28.2843 20.716 27.811 21.732 26.9377 21.732C26.635 21.732 26.2577 21.5893 26.0523 21.3667C25.8817 21.1813 25.6363 21.0653 25.3657 21.0653H22.563C22.1923 21.0653 21.8537 21.3133 21.7803 21.676C21.695 22.1 21.975 22.4987 22.379 22.58L26.1017 23.3253C27.5843 23.6213 28.6203 25.0347 28.4017 26.5773V26.58ZM32.0003 2.66667V8C32.0003 8.736 31.4043 9.33333 30.667 9.33333C29.9297 9.33333 29.3337 8.736 29.3337 8V4.552L23.9177 9.968C22.1257 11.76 19.2097 11.7613 17.4177 9.968L14.0323 6.584C13.2803 5.832 12.055 5.832 11.3017 6.584L2.27633 15.6093C2.01633 15.8693 1.675 16 1.33367 16C0.992333 16 0.651 15.8693 0.391 15.6093C-0.130333 15.088 -0.130333 14.2453 0.391 13.724L9.41633 4.69867C11.2083 2.90533 14.1257 2.90533 15.9177 4.69867L19.303 8.08267C20.0563 8.83733 21.2817 8.83333 22.0323 8.08267L27.4483 2.66667H24.0003C23.263 2.66667 22.667 2.06933 22.667 1.33333C22.667 0.597333 23.263 0 24.0003 0H29.3337C30.8043 0 32.0003 1.196 32.0003 2.66667ZM4.00033 20V30.6667C4.00033 31.404 3.403 32 2.667 32C1.931 32 1.33367 31.404 1.33367 30.6667V20C1.33367 19.2627 1.931 18.6667 2.667 18.6667C3.403 18.6667 4.00033 19.2627 4.00033 20ZM10.667 14V30.6667C10.667 31.404 10.0697 32 9.33367 32C8.59767 32 8.00033 31.404 8.00033 30.6667V14C8.00033 13.264 8.59767 12.6667 9.33367 12.6667C10.0697 12.6667 10.667 13.264 10.667 14ZM16.0003 17.3333C15.2643 17.3333 14.667 16.736 14.667 16V13.3333C14.667 12.5973 15.2643 12 16.0003 12C16.7363 12 17.3337 12.5973 17.3337 13.3333V16C17.3337 16.736 16.7363 17.3333 16.0003 17.3333Z" fill="#A57A24"/>
</svg>
