<svg width="32" height="32" viewBox="0 0 32 32" fill="none" xmlns="http://www.w3.org/2000/svg">
<path d="M10.6667 0H5.33333C3.91885 0 2.56229 0.561903 1.5621 1.5621C0.561903 2.56229 0 3.91885 0 5.33333L0 6.66667C0 8.08115 0.561903 9.43771 1.5621 10.4379C2.56229 11.4381 3.91885 12 5.33333 12H6.66667V14.6667H4C3.64638 14.6667 3.30724 14.8071 3.05719 15.0572C2.80714 15.3072 2.66667 15.6464 2.66667 16C2.66667 16.3536 2.80714 16.6928 3.05719 16.9428C3.30724 17.1929 3.64638 17.3333 4 17.3333H12C12.3536 17.3333 12.6928 17.1929 12.9428 16.9428C13.1929 16.6928 13.3333 16.3536 13.3333 16C13.3333 15.6464 13.1929 15.3072 12.9428 15.0572C12.6928 14.8071 12.3536 14.6667 12 14.6667H9.33333V12H10.6667C12.0812 12 13.4377 11.4381 14.4379 10.4379C15.4381 9.43771 16 8.08115 16 6.66667V5.33333C16 3.91885 15.4381 2.56229 14.4379 1.5621C13.4377 0.561903 12.0812 0 10.6667 0ZM13.3333 6.66667C13.3333 7.37391 13.0524 8.05219 12.5523 8.55229C12.0522 9.05238 11.3739 9.33333 10.6667 9.33333H5.33333C4.62609 9.33333 3.94781 9.05238 3.44772 8.55229C2.94762 8.05219 2.66667 7.37391 2.66667 6.66667V5.33333C2.66667 4.62609 2.94762 3.94781 3.44772 3.44772C3.94781 2.94762 4.62609 2.66667 5.33333 2.66667H10.6667C11.3739 2.66667 12.0522 2.94762 12.5523 3.44772C13.0524 3.94781 13.3333 4.62609 13.3333 5.33333V6.66667ZM26.6667 14.6667H24C22.5855 14.6667 21.229 15.2286 20.2288 16.2288C19.2286 17.229 18.6667 18.5855 18.6667 20V26.6667C18.6667 28.0812 19.2286 29.4377 20.2288 30.4379C21.229 31.4381 22.5855 32 24 32H26.6667C28.0812 32 29.4377 31.4381 30.4379 30.4379C31.4381 29.4377 32 28.0812 32 26.6667V20C32 18.5855 31.4381 17.229 30.4379 16.2288C29.4377 15.2286 28.0812 14.6667 26.6667 14.6667ZM29.3333 26.6667C29.3333 27.3739 29.0524 28.0522 28.5523 28.5523C28.0522 29.0524 27.3739 29.3333 26.6667 29.3333H24C23.2928 29.3333 22.6145 29.0524 22.1144 28.5523C21.6143 28.0522 21.3333 27.3739 21.3333 26.6667V20C21.3333 19.2928 21.6143 18.6145 22.1144 18.1144C22.6145 17.6143 23.2928 17.3333 24 17.3333H26.6667C27.3739 17.3333 28.0522 17.6143 28.5523 18.1144C29.0524 18.6145 29.3333 19.2928 29.3333 20V26.6667ZM18.6667 5.33333C18.6667 4.97971 18.8071 4.64057 19.0572 4.39052C19.3072 4.14048 19.6464 4 20 4H22.6667C23.7275 4 24.7449 4.42143 25.4951 5.17157C26.2452 5.92172 26.6667 6.93913 26.6667 8V10.6667C26.6667 11.0203 26.5262 11.3594 26.2761 11.6095C26.0261 11.8595 25.687 12 25.3333 12C24.9797 12 24.6406 11.8595 24.3905 11.6095C24.1405 11.3594 24 11.0203 24 10.6667V8C24 7.64638 23.8595 7.30724 23.6095 7.05719C23.3594 6.80714 23.0203 6.66667 22.6667 6.66667H20C19.6464 6.66667 19.3072 6.52619 19.0572 6.27614C18.8071 6.02609 18.6667 5.68696 18.6667 5.33333ZM16 26.6667C16 27.0203 15.8595 27.3594 15.6095 27.6095C15.3594 27.8595 15.0203 28 14.6667 28H10.6667C9.6058 28 8.58839 27.5786 7.83824 26.8284C7.08809 26.0783 6.66667 25.0609 6.66667 24V21.3333C6.66667 20.9797 6.80714 20.6406 7.05719 20.3905C7.30724 20.1405 7.64638 20 8 20C8.35362 20 8.69276 20.1405 8.94281 20.3905C9.19286 20.6406 9.33333 20.9797 9.33333 21.3333V24C9.33333 24.3536 9.47381 24.6928 9.72386 24.9428C9.97391 25.1929 10.313 25.3333 10.6667 25.3333H14.6667C15.0203 25.3333 15.3594 25.4738 15.6095 25.7239C15.8595 25.9739 16 26.313 16 26.6667ZM26.6667 26.6667C26.6667 26.9304 26.5885 27.1882 26.442 27.4074C26.2955 27.6267 26.0872 27.7976 25.8436 27.8985C25.5999 27.9994 25.3319 28.0258 25.0732 27.9744C24.8146 27.9229 24.577 27.7959 24.3905 27.6095C24.2041 27.423 24.0771 27.1854 24.0256 26.9268C23.9742 26.6681 24.0006 26.4001 24.1015 26.1564C24.2024 25.9128 24.3733 25.7045 24.5926 25.558C24.8118 25.4115 25.0696 25.3333 25.3333 25.3333C25.687 25.3333 26.0261 25.4738 26.2761 25.7239C26.5262 25.9739 26.6667 26.313 26.6667 26.6667Z" fill="#A57A24"/>
</svg>
