<svg width="28" height="28" viewBox="0 0 28 28" fill="none" xmlns="http://www.w3.org/2000/svg">
<path d="M4.41683 16.0236H11.9762V23.583C11.9769 24.1353 12.1966 24.6649 12.5871 25.0554C12.9777 25.446 13.5072 25.6657 14.0596 25.6663H23.5835C24.1358 25.6657 24.6654 25.446 25.0559 25.0554C25.4465 24.6649 25.6662 24.1353 25.6668 23.583V14.0591C25.6662 13.5067 25.4465 12.9772 25.0559 12.5867C24.6654 12.1961 24.1358 11.9764 23.5835 11.9757H16.0241V4.41634C16.0234 3.86401 15.8037 3.33448 15.4132 2.94392C15.0226 2.55336 14.4931 2.33366 13.9408 2.33301H4.41683C3.86449 2.33366 3.33497 2.55336 2.94441 2.94392C2.55385 3.33448 2.33414 3.86401 2.3335 4.41634V13.9403C2.33414 14.4926 2.55385 15.0221 2.94441 15.4127C3.33497 15.8032 3.86449 16.023 4.41683 16.0236ZM16.0241 13.9403V12.8091H23.5835C23.9149 12.8094 24.2326 12.9413 24.467 13.1756C24.7013 13.4099 24.8331 13.7277 24.8335 14.0591V23.583C24.8331 23.9144 24.7013 24.2321 24.467 24.4665C24.2326 24.7008 23.9149 24.8326 23.5835 24.833H14.0596C13.7282 24.8326 13.4104 24.7008 13.1761 24.4665C12.9417 24.2321 12.8099 23.9144 12.8096 23.583V16.0236H13.9408C14.4931 16.023 15.0226 15.8032 15.4132 15.4127C15.8037 15.0221 16.0234 14.4926 16.0241 13.9403ZM3.16683 4.41634C3.16719 4.08493 3.299 3.7672 3.53335 3.53286C3.76769 3.29852 4.08542 3.1667 4.41683 3.16634H13.9408C14.2722 3.1667 14.5899 3.29852 14.8242 3.53286C15.0586 3.7672 15.1904 4.08493 15.1908 4.41634V13.9403C15.1904 14.2717 15.0586 14.5894 14.8242 14.8238C14.5899 15.0581 14.2722 15.1899 13.9408 15.1903H4.41683C4.08542 15.1899 3.76769 15.0581 3.53335 14.8238C3.299 14.5894 3.16719 14.2717 3.16683 13.9403V4.41634Z" fill="white"/>
<path d="M5.9809 7.84692H6.8744C7.21912 8.87826 7.79235 9.81842 8.55129 10.5972C7.88724 11.1158 7.12722 11.498 6.31494 11.7218C6.20835 11.7509 6.11767 11.8211 6.06281 11.917C6.00795 12.0129 5.99341 12.1267 6.02238 12.2333C6.24391 13.1611 8.77402 11.5324 9.17917 11.1745C9.95785 11.803 10.8584 12.2631 11.824 12.5259C11.8769 12.5408 11.9323 12.5451 11.9869 12.5385C12.0416 12.5319 12.0943 12.5145 12.1422 12.4874C12.1901 12.4603 12.2321 12.4239 12.2659 12.3805C12.2997 12.3371 12.3245 12.2874 12.3389 12.2343C12.3534 12.1812 12.3572 12.1258 12.3501 12.0712C12.343 12.0166 12.3252 11.964 12.2977 11.9164C12.2702 11.8687 12.2335 11.827 12.1897 11.7936C12.146 11.7602 12.0961 11.7358 12.0429 11.7218C11.2308 11.4979 10.4709 11.1157 9.80699 10.5972C10.566 9.81851 11.1392 8.87832 11.4836 7.84692H12.3774C12.4868 7.8453 12.5912 7.80068 12.668 7.72272C12.7448 7.64475 12.7879 7.53969 12.7879 7.43025C12.7879 7.3208 12.7448 7.21574 12.668 7.13778C12.5912 7.05982 12.4868 7.01521 12.3773 7.01359H9.59578V6.23112C9.59578 6.12061 9.55188 6.01463 9.47374 5.93649C9.3956 5.85835 9.28962 5.81445 9.17912 5.81445C9.06861 5.81445 8.96263 5.85835 8.88449 5.93649C8.80635 6.01463 8.76245 6.12061 8.76245 6.23112V7.01359H5.98087C5.87177 7.01572 5.76786 7.06056 5.69146 7.13847C5.61506 7.21638 5.57226 7.32115 5.57227 7.43027C5.57227 7.53939 5.61507 7.64416 5.69148 7.72207C5.76789 7.79997 5.8718 7.8448 5.9809 7.84692ZM10.5968 7.84692C10.2781 8.66853 9.79536 9.41662 9.1781 10.0456C8.55851 9.4188 8.07591 8.67007 7.7609 7.84692H10.5968Z" fill="white"/>
<path d="M16.5221 21.9399L17.304 20.22H20.339L21.1209 21.9399C21.168 22.0384 21.2518 22.1144 21.3544 22.1517C21.4569 22.189 21.57 22.1846 21.6694 22.1394C21.7687 22.0942 21.8463 22.0119 21.8856 21.91C21.9248 21.8082 21.9226 21.695 21.8793 21.5949L20.9915 19.6416L19.2007 15.7022C19.1676 15.6293 19.1142 15.5676 19.047 15.5243C18.9797 15.481 18.9015 15.458 18.8215 15.458C18.7415 15.458 18.6632 15.481 18.596 15.5243C18.5287 15.5676 18.4754 15.6293 18.4422 15.7022L15.7636 21.5949C15.7204 21.6951 15.7181 21.8082 15.7574 21.91C15.7967 22.0118 15.8743 22.0942 15.9737 22.1393C16.073 22.1845 16.1861 22.1889 16.2886 22.1517C16.3911 22.1144 16.475 22.0383 16.5221 21.9399ZM18.8215 16.8818L19.9602 19.3866H17.6828L18.8215 16.8818Z" fill="white"/>
<path d="M7.57194 17.333C7.51721 17.333 7.46302 17.3437 7.41245 17.3647C7.36188 17.3856 7.31594 17.4163 7.27724 17.455C7.23854 17.4937 7.20785 17.5396 7.18693 17.5902C7.166 17.6408 7.15524 17.6949 7.15527 17.7497V18.7616C7.15592 19.314 7.37562 19.8435 7.76618 20.2341C8.15674 20.6246 8.68627 20.8443 9.23861 20.845H10.2506C10.3611 20.845 10.4671 20.8011 10.5452 20.7229C10.6233 20.6448 10.6672 20.5388 10.6672 20.4283C10.6672 20.3178 10.6233 20.2118 10.5452 20.1337C10.4671 20.0555 10.3611 20.0116 10.2506 20.0116H9.23861C8.9072 20.0113 8.58946 19.8795 8.35512 19.6451C8.12078 19.4108 7.98897 19.093 7.98861 18.7616V17.7497C7.98864 17.6949 7.97788 17.6408 7.95695 17.5902C7.93602 17.5396 7.90534 17.4937 7.86664 17.455C7.82794 17.4163 7.78199 17.3856 7.73143 17.3647C7.68086 17.3437 7.62667 17.333 7.57194 17.333Z" fill="white"/>
<path d="M20.4288 10.6663C20.4835 10.6663 20.5377 10.6555 20.5883 10.6346C20.6388 10.6137 20.6848 10.583 20.7235 10.5443C20.7622 10.5056 20.7929 10.4596 20.8138 10.4091C20.8347 10.3585 20.8455 10.3043 20.8455 10.2496V9.23763C20.8448 8.68529 20.6251 8.15577 20.2345 7.76521C19.844 7.37465 19.3145 7.15495 18.7621 7.1543H17.7502C17.6397 7.1543 17.5337 7.1982 17.4555 7.27634C17.3774 7.35448 17.3335 7.46046 17.3335 7.57096C17.3335 7.68147 17.3774 7.78745 17.4555 7.86559C17.5337 7.94373 17.6397 7.98763 17.7502 7.98763H18.7621C19.0935 7.98799 19.4113 8.1198 19.6456 8.35415C19.88 8.58849 20.0118 8.90622 20.0121 9.23763V10.2496C20.0121 10.3043 20.0228 10.3585 20.0438 10.4091C20.0647 10.4596 20.0954 10.5056 20.1341 10.5443C20.1728 10.583 20.2187 10.6137 20.2693 10.6346C20.3199 10.6555 20.3741 10.6663 20.4288 10.6663Z" fill="white"/>
</svg>
