<svg width="38" height="38" viewBox="0 0 38 38" fill="none" xmlns="http://www.w3.org/2000/svg">
<path d="M37.9652 25.8178C37.7482 27.3363 36.5307 28.5 35.0582 28.5H34.0781C32.4536 28.5 31.1378 27.0829 31.1378 25.3333C31.1378 27.0829 29.8221 28.5 28.1976 28.5H27.2175C25.593 28.5 24.2772 27.0829 24.2772 25.3333C24.2772 27.0829 22.9615 28.5 21.337 28.5H20.3569C18.886 28.5 17.6668 27.3363 17.4499 25.8178C17.4056 25.5028 17.4784 25.1798 17.6003 24.8853L18.1624 23.522C18.8955 21.7439 20.6292 20.5833 22.553 20.5833H32.8589C34.7827 20.5833 36.5164 21.7439 37.2495 23.522L37.8116 24.8853C37.9335 25.1798 38.0079 25.5028 37.962 25.8178H37.9652ZM34.8333 30.0833C33.9577 30.0833 33.25 30.7927 33.25 31.6667V33.25C33.25 34.1224 32.5407 34.8333 31.6667 34.8333H23.75C22.876 34.8333 22.1667 34.1224 22.1667 33.25V31.6667C22.1667 30.7927 21.4589 30.0833 20.5833 30.0833C19.7077 30.0833 19 30.7927 19 31.6667V33.25C19 35.8688 21.1312 38 23.75 38H31.6667C34.2855 38 36.4167 35.8688 36.4167 33.25V31.6667C36.4167 30.7927 35.7089 30.0833 34.8333 30.0833ZM3.16667 9.5C3.16667 4.26075 7.42742 0 12.6667 0C17.9059 0 22.1667 4.26075 22.1667 9.5C22.1667 14.7393 17.9059 19 12.6667 19C7.42742 19 3.16667 14.7393 3.16667 9.5ZM6.33333 9.5C6.33333 12.9928 9.17383 15.8333 12.6667 15.8333C16.1595 15.8333 19 12.9928 19 9.5C19 6.00717 16.1595 3.16667 12.6667 3.16667C9.17383 3.16667 6.33333 6.00717 6.33333 9.5ZM12.6667 22.1667C5.68258 22.1667 0 27.8493 0 34.8333V36.4167C0 37.2907 0.70775 38 1.58333 38C2.45892 38 3.16667 37.2907 3.16667 36.4167V34.8333C3.16667 29.5941 7.42742 25.3333 12.6667 25.3333C13.5422 25.3333 14.25 24.624 14.25 23.75C14.25 22.876 13.5422 22.1667 12.6667 22.1667Z" fill="#A57A24"/>
</svg>
