<svg width="32" height="32" viewBox="0 0 32 32" fill="none" xmlns="http://www.w3.org/2000/svg">
<path d="M19.984 16.9675C20.1947 19.3409 18.3307 21.3329 16 21.3329H10.696C9.77467 21.3329 9.12133 20.4449 9.396 19.5662C10.0653 17.4209 11.9773 14.0129 15.0493 13.4222C17.3893 12.9715 19.7733 14.5942 19.984 16.9675ZM30.6667 11.9995C29.9293 11.9995 29.3333 12.5955 29.3333 13.3329V19.9995C29.3333 22.2049 27.5387 23.9995 25.3333 23.9995H6.66667C4.46133 23.9995 2.66667 22.2049 2.66667 19.9995V9.33288C2.66667 7.12755 4.46133 5.33288 6.66667 5.33288H17.3333C18.0707 5.33288 18.6667 4.73688 18.6667 3.99955C18.6667 3.26221 18.0707 2.66621 17.3333 2.66621H6.66667C2.99067 2.66621 0 5.65688 0 9.33288V19.9995C0 23.6755 2.99067 26.6662 6.66667 26.6662H14.6667V29.3329H10.6667C9.93067 29.3329 9.33333 29.9289 9.33333 30.6662C9.33333 31.4035 9.93067 31.9995 10.6667 31.9995H21.3333C22.0707 31.9995 22.6667 31.4035 22.6667 30.6662C22.6667 29.9289 22.0707 29.3329 21.3333 29.3329H17.3333V26.6662H25.3333C29.0093 26.6662 32 23.6755 32 19.9995V13.3329C32 12.5955 31.404 11.9995 30.6667 11.9995ZM18.1147 11.5795C18.124 11.5835 18.1347 11.5875 18.144 11.5929C18.656 11.8169 19.2507 11.6715 19.6227 11.2542L27.144 3.08088C27.608 2.56221 28.4053 2.51821 28.9227 2.98221C28.94 2.99821 28.956 3.01288 28.9733 3.03021C29.4653 3.52088 29.4653 4.31688 28.9747 4.80888C28.9747 4.80888 28.9747 4.80888 28.9733 4.81021L21.1813 12.3915C20.74 12.8329 20.6773 13.5169 21.0173 14.0409C21.0227 14.0489 21.028 14.0569 21.032 14.0635C21.484 14.7689 22.4693 14.8715 23.0613 14.2795L30.8533 6.69955C32.384 5.16621 32.384 2.68221 30.8533 1.14888C29.3213 -0.384453 26.8373 -0.385786 25.304 1.14621C25.252 1.19821 17.6227 9.48755 17.6227 9.48755C17.016 10.1689 17.2773 11.2182 18.1147 11.5795Z" fill="#A57A24"/>
</svg>
