<svg width="32" height="32" viewBox="0 0 32 32" fill="none" xmlns="http://www.w3.org/2000/svg">
<path d="M18.6667 13.334C18.6667 14.6927 18.256 15.9527 17.5573 17.006L13.724 13.1727C13.4733 12.922 13.3333 12.5833 13.3333 12.23V6.80198C16.376 7.41932 18.6667 10.1087 18.6667 13.334ZM10.6667 12.782V6.80198C7.26667 7.49265 4.80533 10.77 5.43067 14.4913C5.864 17.07 7.85733 19.2153 10.4027 19.814C12.3627 20.274 14.216 19.858 15.672 18.8927L11.4467 14.6673C10.9467 14.1673 10.6667 13.4887 10.6667 12.782ZM25.3333 6.66732H22.6667C21.9293 6.66732 21.3333 7.26465 21.3333 8.00065C21.3333 8.73665 21.9293 9.33398 22.6667 9.33398H25.3333C26.0707 9.33398 26.6667 8.73665 26.6667 8.00065C26.6667 7.26465 26.0707 6.66732 25.3333 6.66732ZM25.3333 12.0007H22.6667C21.9293 12.0007 21.3333 12.598 21.3333 13.334C21.3333 14.07 21.9293 14.6673 22.6667 14.6673H25.3333C26.0707 14.6673 26.6667 14.07 26.6667 13.334C26.6667 12.598 26.0707 12.0007 25.3333 12.0007ZM25.3333 17.334H22.6667C21.9293 17.334 21.3333 17.9313 21.3333 18.6673C21.3333 19.4033 21.9293 20.0007 22.6667 20.0007H25.3333C26.0707 20.0007 26.6667 19.4033 26.6667 18.6673C26.6667 17.9313 26.0707 17.334 25.3333 17.334ZM32 8.00065V18.6673C32 22.3433 29.0093 25.334 25.3333 25.334H17.3333V28.0007H22.6667C23.404 28.0007 24 28.598 24 29.334C24 30.07 23.404 30.6673 22.6667 30.6673H9.33333C8.596 30.6673 8 30.07 8 29.334C8 28.598 8.596 28.0007 9.33333 28.0007H14.6667V25.334H6.66667C2.99067 25.334 0 22.3433 0 18.6673V8.00065C0 4.32465 2.99067 1.33398 6.66667 1.33398H25.3333C29.0093 1.33398 32 4.32465 32 8.00065ZM29.3333 8.00065C29.3333 5.79532 27.5387 4.00065 25.3333 4.00065H6.66667C4.46133 4.00065 2.66667 5.79532 2.66667 8.00065V18.6673C2.66667 20.8727 4.46133 22.6673 6.66667 22.6673H25.3333C27.5387 22.6673 29.3333 20.8727 29.3333 18.6673V8.00065Z" fill="#A57A24"/>
</svg>
