<svg width="28" height="28" viewBox="0 0 28 28" fill="none" xmlns="http://www.w3.org/2000/svg">
<path d="M13.5239 20.6503C12.7078 20.5928 11.9201 20.3889 11.1823 20.0442C11.0489 19.9819 10.8962 19.9747 10.7573 20.0253C10.6189 20.0758 10.5062 20.1792 10.4437 20.3128L9.74644 21.8078C8.24755 20.9894 7.01089 19.7528 6.19283 18.2539L7.68755 17.5569C7.82117 17.4947 7.92478 17.3819 7.97505 17.2433C8.02533 17.1047 8.01839 16.9517 7.95617 16.8183C7.61172 16.0805 7.40755 15.2928 7.35005 14.4761C7.30894 13.898 6.82311 13.445 6.24394 13.445H2.33339C2.02672 13.445 1.77783 13.6939 1.77783 14.0005C1.77783 20.74 7.26061 26.2228 14.0001 26.2228C14.3067 26.2228 14.5556 25.9739 14.5556 25.6672V21.7567C14.5556 21.1775 14.1026 20.6917 13.5239 20.6503ZM13.4445 25.0978C7.75867 24.8167 3.18394 20.2417 2.90283 14.5558L6.242 14.5547C6.29589 15.3211 6.46061 16.0658 6.73255 16.7764L5.20394 17.4892C5.07033 17.5514 4.96672 17.6642 4.91644 17.8028C4.86617 17.9414 4.87283 18.0942 4.93505 18.2278C5.92839 20.3539 7.64672 22.0722 9.77283 23.0655C9.90589 23.1278 10.0587 23.1347 10.1978 23.0842C10.3364 23.0336 10.4492 22.9303 10.5114 22.7967L11.2242 21.268C11.9348 21.54 12.6792 21.7042 13.4445 21.7564V25.0978ZM12.8889 12.8894V12.3339C12.8889 12.0275 12.6398 11.7783 12.3334 11.7783H10.6667C10.3601 11.7783 10.1112 11.5294 10.1112 11.2228C10.1112 10.9161 10.3601 10.6672 10.6667 10.6672H12.3334C13.2526 10.6672 14.0001 11.4147 14.0001 12.3339V12.8894C14.0001 13.8086 13.2526 14.5561 12.3334 14.5561H11.7778C11.4714 14.5561 11.2223 14.8053 11.2223 15.1117V16.2228H13.4445C13.7512 16.2228 14.0001 16.4717 14.0001 16.7783C14.0001 17.085 13.7512 17.3339 13.4445 17.3339H10.6667C10.3601 17.3339 10.1112 17.085 10.1112 16.7783V15.1117C10.1112 14.1925 10.8587 13.445 11.7778 13.445H12.3334C12.6398 13.445 12.8889 13.1958 12.8889 12.8894ZM17.8889 14.5561H15.6667C15.3601 14.5561 15.1112 14.3072 15.1112 14.0005V11.2228C15.1112 10.9161 15.3601 10.6672 15.6667 10.6672C15.9734 10.6672 16.2223 10.9161 16.2223 11.2228V13.445H17.8889V11.2228C17.8889 10.9161 18.1378 10.6672 18.4445 10.6672C18.7512 10.6672 19.0001 10.9161 19.0001 11.2228V16.7783C19.0001 17.085 18.7512 17.3339 18.4445 17.3339C18.1378 17.3339 17.8889 17.085 17.8889 16.7783V14.5561ZM26.2223 14.0005C26.2223 19.5278 22.4973 24.3839 17.1639 25.8094C17.1159 25.8222 17.0676 25.8283 17.0201 25.8283C16.7745 25.8283 16.5501 25.6642 16.4834 25.4161C16.4042 25.1197 16.5803 24.8153 16.8767 24.7358C18.622 24.2694 20.1764 23.3972 21.4531 22.2394L20.2856 21.0719C20.0687 20.855 20.0687 20.5033 20.2856 20.2864C20.5026 20.0694 20.8542 20.0694 21.0712 20.2864L22.2395 21.4547C23.9212 19.5922 24.9653 17.1714 25.0959 14.5564H23.4445C23.1378 14.5564 22.8889 14.3075 22.8889 14.0008C22.8889 13.6942 23.1378 13.4453 23.4445 13.4453H25.097C24.9662 10.7997 23.9053 8.39471 22.2356 6.55082L21.0709 7.71554C20.9623 7.82415 20.8203 7.87832 20.6781 7.87832C20.5359 7.87832 20.3939 7.82415 20.2853 7.71554C20.0684 7.4986 20.0684 7.14693 20.2853 6.92999L21.4501 5.76527C19.6062 4.09526 17.2012 3.03443 14.5556 2.9036V4.5561C14.5556 4.86276 14.3067 5.11165 14.0001 5.11165C13.6934 5.11165 13.4445 4.86276 13.4445 4.5561V2.90471C10.8298 3.03526 8.40867 4.07943 6.54617 5.7611L7.7145 6.92943C7.93144 7.14638 7.93144 7.49804 7.7145 7.71499C7.60589 7.8236 7.46394 7.87777 7.32172 7.87777C7.1795 7.87777 7.03755 7.8236 6.92894 7.71499L5.76144 6.54749C4.60367 7.82415 3.73144 9.37832 3.26505 11.1236C3.18561 11.42 2.88089 11.5961 2.58478 11.5169C2.28839 11.4378 2.11228 11.1333 2.19144 10.8367C3.61672 5.50332 8.47283 1.77832 14.0001 1.77832C20.7395 1.77832 26.2223 7.2611 26.2223 14.0005Z" fill="white"/>
</svg>
