<svg width="31" height="32" viewBox="0 0 31 32" fill="none" xmlns="http://www.w3.org/2000/svg">
<path d="M30.9997 25.3333C30.9997 27.5387 29.205 29.3333 26.9997 29.3333V30.6667C26.9997 31.4027 26.4037 32 25.6663 32C24.929 32 24.333 31.4027 24.333 30.6667V29.3333H23.9757C22.553 29.3333 21.225 28.568 20.5117 27.3347C20.1423 26.6973 20.361 25.8827 20.997 25.5133C21.637 25.1427 22.4517 25.3627 22.8183 26C23.057 26.4107 23.4997 26.6667 23.9743 26.6667H26.9983C27.7343 26.6667 28.3317 26.0693 28.3317 25.3333C28.3317 24.8293 27.9703 24.4027 27.473 24.32L23.4183 23.644C21.629 23.3467 20.3317 21.8133 20.3317 20C20.3317 17.7947 22.1263 16 24.3317 16V14.6667C24.3317 13.9307 24.9277 13.3333 25.665 13.3333C26.4023 13.3333 26.9983 13.9307 26.9983 14.6667V16H27.3557C28.7783 16 30.1063 16.7653 30.8197 17.9987C31.189 18.636 30.9703 19.4507 30.3343 19.82C29.693 20.188 28.8797 19.9693 28.513 19.3333C28.2743 18.9227 27.8317 18.6667 27.357 18.6667H24.333C23.597 18.6667 22.9997 19.264 22.9997 20C22.9997 20.504 23.361 20.9307 23.8583 21.0133L27.913 21.6893C29.7023 21.9867 30.9997 23.52 30.9997 25.3333ZM8.33301 12C7.59701 12 6.99967 12.5973 6.99967 13.3333V30.6667C6.99967 31.4027 7.59701 32 8.33301 32C9.06901 32 9.66634 31.4027 9.66634 30.6667V13.3333C9.66634 12.5973 9.06901 12 8.33301 12ZM1.66634 16C0.930341 16 0.333008 16.5973 0.333008 17.3333V30.6667C0.333008 31.4027 0.930341 32 1.66634 32C2.40234 32 2.99967 31.4027 2.99967 30.6667V17.3333C2.99967 16.5973 2.40234 16 1.66634 16ZM14.9997 8C14.2637 8 13.6663 8.59733 13.6663 9.33333V30.6667C13.6663 31.4027 14.2637 32 14.9997 32C15.7357 32 16.333 31.4027 16.333 30.6667V9.33333C16.333 8.59733 15.7357 8 14.9997 8ZM28.333 10.6667C29.0703 10.6667 29.6663 10.0693 29.6663 9.33333V1.33333C29.6663 0.597333 29.0703 0 28.333 0C27.5957 0 26.9997 0.597333 26.9997 1.33333V9.33333C26.9997 10.0693 27.5957 10.6667 28.333 10.6667ZM21.6663 12C22.4037 12 22.9997 11.4027 22.9997 10.6667V5.33333C22.9997 4.59733 22.4037 4 21.6663 4C20.929 4 20.333 4.59733 20.333 5.33333V10.6667C20.333 11.4027 20.929 12 21.6663 12Z" fill="#A57A24"/>
</svg>
