<svg width="28" height="28" viewBox="0 0 28 28" fill="none" xmlns="http://www.w3.org/2000/svg">
<path fill-rule="evenodd" clip-rule="evenodd" d="M21.3045 12.7759C21.305 12.8197 21.2969 12.8631 21.2805 12.9036C21.2641 12.9442 21.2399 12.9811 21.2091 13.0123C21.1784 13.0434 21.1418 13.0681 21.1014 13.085C21.0611 13.1018 21.0178 13.1105 20.974 13.1105C20.9303 13.1105 20.887 13.1018 20.8466 13.085C20.8062 13.0681 20.7696 13.0434 20.7389 13.0123C20.7081 12.9811 20.6839 12.9442 20.6675 12.9036C20.6512 12.8631 20.643 12.8197 20.6436 12.7759C20.646 12.6752 20.6159 12.5764 20.5577 12.4942C20.4995 12.4119 20.4164 12.3507 20.3207 12.3194C20.1523 12.2599 19.9687 12.2599 19.8004 12.3194C19.7047 12.3507 19.6216 12.4119 19.5634 12.4942C19.5052 12.5764 19.4751 12.6752 19.4775 12.7759C19.4775 13.1489 19.803 13.2199 20.1289 13.291C20.7165 13.4192 21.3048 13.5476 21.3048 14.4566C21.3048 15.0174 20.9728 15.3761 20.548 15.5327C20.4967 15.5516 20.4443 15.5674 20.3912 15.58V15.8067C20.3901 15.8936 20.3548 15.9766 20.2929 16.0377C20.2311 16.0988 20.1477 16.133 20.0607 16.133C19.9738 16.133 19.8904 16.0988 19.8285 16.0377C19.7667 15.9766 19.7314 15.8936 19.7303 15.8067V15.58C19.6771 15.5673 19.6247 15.5516 19.5734 15.5327C19.1486 15.3761 18.8166 15.0174 18.8166 14.4566C18.8161 14.4128 18.8242 14.3694 18.8406 14.3289C18.857 14.2883 18.8812 14.2514 18.9119 14.2202C18.9427 14.1891 18.9793 14.1644 19.0197 14.1475C19.06 14.1307 19.1033 14.122 19.1471 14.122C19.1908 14.122 19.2341 14.1307 19.2745 14.1475C19.3149 14.1644 19.3515 14.1891 19.3822 14.2202C19.413 14.2514 19.4372 14.2883 19.4536 14.3289C19.4699 14.3694 19.4781 14.4128 19.4775 14.4566C19.4751 14.5573 19.5052 14.6561 19.5634 14.7383C19.6216 14.8205 19.7047 14.8818 19.8004 14.9131C19.9688 14.9725 20.1523 14.9725 20.3207 14.9131C20.4164 14.8818 20.4995 14.8205 20.5577 14.7383C20.6159 14.6561 20.646 14.5573 20.6436 14.4566C20.6436 14.0792 20.3161 14.0078 19.9891 13.9364C19.4024 13.8084 18.8163 13.6805 18.8163 12.7759C18.8163 12.2151 19.1482 11.8564 19.573 11.6998C19.6244 11.6809 19.6767 11.6652 19.7299 11.6525V11.4258C19.731 11.3389 19.7663 11.2559 19.8282 11.1948C19.89 11.1337 19.9734 11.0995 20.0604 11.0995C20.1473 11.0995 20.2307 11.1337 20.2926 11.1948C20.3544 11.2559 20.3897 11.3389 20.3908 11.4258V11.6525C20.444 11.6651 20.4963 11.6809 20.5476 11.6998C20.9725 11.8565 21.3045 12.2151 21.3045 12.7759ZM12.7893 3.38497C12.6895 3.38498 12.5919 3.41459 12.5089 3.47007C12.4259 3.52554 12.3612 3.60438 12.323 3.69662C12.2848 3.78886 12.2748 3.89036 12.2943 3.98827C12.3137 4.08619 12.3618 4.17613 12.4324 4.24672C12.503 4.31731 12.593 4.36538 12.6909 4.38486C12.7888 4.40433 12.8903 4.39433 12.9825 4.35612C13.0748 4.31792 13.1536 4.25322 13.2091 4.1702C13.2645 4.08719 13.2941 3.9896 13.2941 3.88976C13.2942 3.82346 13.2811 3.75781 13.2557 3.69656C13.2304 3.6353 13.1932 3.57965 13.1463 3.53277C13.0994 3.48589 13.0438 3.44871 12.9825 3.42335C12.9212 3.39799 12.8556 3.38495 12.7893 3.38497ZM16.4205 5.21664C16.3206 5.21663 16.223 5.24623 16.14 5.3017C16.057 5.35717 15.9923 5.43601 15.954 5.52826C15.9158 5.62051 15.9058 5.72202 15.9253 5.81996C15.9448 5.91789 15.9929 6.00785 16.0635 6.07846C16.1341 6.14907 16.224 6.19715 16.322 6.21663C16.4199 6.2361 16.5214 6.2261 16.6137 6.18789C16.7059 6.14967 16.7848 6.08495 16.8402 6.00192C16.8957 5.9189 16.9253 5.82128 16.9253 5.72143C16.9253 5.65514 16.9122 5.58949 16.8869 5.52825C16.8615 5.467 16.8243 5.41135 16.7775 5.36447C16.7306 5.3176 16.6749 5.28041 16.6137 5.25505C16.5524 5.22968 16.4868 5.21663 16.4205 5.21664ZM9.15815 6.74789C9.05831 6.74789 8.96072 6.77749 8.8777 6.83296C8.79469 6.88843 8.72999 6.96726 8.69178 7.0595C8.65358 7.15174 8.64358 7.25324 8.66306 7.35116C8.68254 7.44908 8.73061 7.53902 8.80121 7.60962C8.87181 7.68022 8.96175 7.72829 9.05967 7.74777C9.15759 7.76725 9.25909 7.75725 9.35133 7.71905C9.44356 7.68084 9.5224 7.61614 9.57787 7.53313C9.63334 7.45011 9.66294 7.35252 9.66294 7.25268C9.66296 7.18639 9.64991 7.12074 9.62455 7.05949C9.59918 6.99824 9.562 6.94258 9.51512 6.89571C9.46825 6.84883 9.41259 6.81165 9.35134 6.78628C9.29009 6.76092 9.22445 6.74787 9.15815 6.74789ZM19.4915 2.15731C19.4045 2.14876 19.3245 2.10601 19.2691 2.03847C19.2137 1.97093 19.1873 1.88414 19.1959 1.79718C19.2044 1.71023 19.2472 1.63023 19.3147 1.5748C19.3823 1.51936 19.4691 1.49303 19.556 1.50158L21.2909 1.67185C21.3361 1.67468 21.3803 1.68679 21.4206 1.70744C21.4609 1.72809 21.4965 1.75682 21.5253 1.79185C21.554 1.82688 21.5752 1.86746 21.5875 1.91104C21.5999 1.95462 21.6031 2.00029 21.5971 2.04518L21.4268 3.77955C21.4179 3.86616 21.3749 3.94569 21.3075 4.00075C21.24 4.05581 21.1535 4.08193 21.0669 4.07341C20.9802 4.06488 20.9005 4.0224 20.845 3.95524C20.7896 3.88809 20.763 3.80172 20.7711 3.71502L20.8683 2.72471L17.5089 5.30216C17.5736 5.47016 17.5985 5.65087 17.5817 5.83012C17.5649 6.00937 17.5067 6.18229 17.4119 6.33532C17.3171 6.48835 17.1881 6.61734 17.035 6.71218C16.882 6.80702 16.7091 6.86513 16.5299 6.88195C16.3506 6.89878 16.1699 6.87386 16.0019 6.80916C15.8339 6.74446 15.6831 6.64173 15.5615 6.50902C15.4398 6.37631 15.3505 6.21722 15.3007 6.04424C15.2508 5.87125 15.2416 5.68906 15.2739 5.51195L13.6391 4.68763C13.4548 4.88396 13.2082 5.01043 12.9412 5.04556C12.6742 5.08068 12.4033 5.02231 12.1745 4.88033L10.1689 6.67174C10.3084 6.91459 10.3557 7.19956 10.3022 7.47446C10.2487 7.74935 10.098 7.99577 9.87758 8.16858C9.65721 8.34138 9.38195 8.42901 9.10222 8.41542C8.8225 8.40182 8.55704 8.2879 8.35446 8.09454C8.15188 7.90117 8.02574 7.64129 7.99915 7.3625C7.97256 7.08372 8.04729 6.80468 8.20966 6.5765C8.37203 6.34832 8.61117 6.18628 8.88328 6.12005C9.15539 6.05381 9.44225 6.08783 9.69133 6.21586L11.7359 4.38945C11.6572 4.22344 11.6189 4.04118 11.624 3.85753C11.6291 3.67388 11.6775 3.49404 11.7654 3.33267C11.8532 3.1713 11.9779 3.03298 12.1294 2.92898C12.2808 2.82497 12.4547 2.75823 12.6369 2.7342C12.819 2.71017 13.0042 2.72953 13.1775 2.79069C13.3507 2.85186 13.5071 2.9531 13.6337 3.08616C13.7604 3.21923 13.8539 3.38035 13.9064 3.55639C13.959 3.73242 13.9692 3.9184 13.9363 4.09914L15.5707 4.92362C15.7652 4.71639 16.0287 4.58736 16.3116 4.56077C16.5946 4.53418 16.8775 4.61188 17.1072 4.77924L20.4074 2.24716L19.4913 2.15721L19.4915 2.15731ZM22.3743 11.3026C21.8391 10.7673 21.1347 10.4341 20.3813 10.3599C19.6279 10.2857 18.8721 10.475 18.2426 10.8956C17.6132 11.3161 17.149 11.942 16.9292 12.6664C16.7095 13.3908 16.7477 14.1691 17.0374 14.8685C17.3271 15.5679 17.8503 16.1453 18.5179 16.5021C19.1856 16.859 19.9563 16.9733 20.6988 16.8257C21.4413 16.678 22.1096 16.2774 22.5899 15.6922C23.0702 15.107 23.3327 14.3734 23.3327 13.6164C23.3333 13.1866 23.2489 12.7609 23.0844 12.3639C22.92 11.9668 22.6786 11.6061 22.3743 11.3026ZM7.63341 19.4593L10.2063 23.5252L10.5303 23.3362C10.5963 23.2945 10.6751 23.2777 10.7525 23.2888L15.6038 23.9895C16.0795 24.0659 16.5665 23.9596 16.9672 23.692C16.9672 23.692 22.9068 20.2629 23.4477 19.9507C23.6359 19.8285 23.7528 19.7146 23.8149 19.4903C23.8415 19.3976 23.8495 19.3004 23.8384 19.2046C23.8273 19.1087 23.7974 19.016 23.7503 18.9317C23.7032 18.8475 23.6399 18.7734 23.564 18.7137C23.4881 18.6541 23.4012 18.61 23.3083 18.5841C23.1107 18.5309 22.9004 18.5542 22.7194 18.6495L18.8069 20.6765C18.8493 21.2617 18.5017 21.7733 17.9746 22.0359C17.819 22.1153 17.649 22.1626 17.4748 22.175C17.3006 22.1874 17.1256 22.1646 16.9604 22.108L13.0568 20.8007C12.9739 20.773 12.9054 20.7135 12.8665 20.6352C12.8275 20.557 12.8211 20.4665 12.8489 20.3836C12.8766 20.3008 12.9361 20.2323 13.0143 20.1933C13.0925 20.1543 13.183 20.148 13.2659 20.1757L17.1695 21.483C17.2529 21.5111 17.3411 21.5222 17.4288 21.5156C17.5166 21.509 17.6021 21.4848 17.6803 21.4445C17.8699 21.3433 18.0233 21.1857 18.1193 20.9934C18.1744 20.8077 18.1557 20.6079 18.0669 20.4357C17.9782 20.2635 17.8263 20.1323 17.643 20.0695L12.2993 18.2798C11.884 18.1336 11.4309 18.1359 11.0172 18.2863L7.63336 19.459L7.63341 19.4593ZM7.6407 26.3459L3.5482 19.8784C3.50166 19.8044 3.48639 19.715 3.50576 19.6298C3.52512 19.5446 3.57754 19.4705 3.65148 19.424L6.20117 17.8106C6.27512 17.7641 6.36452 17.7488 6.44972 17.7682C6.53492 17.7875 6.60894 17.8399 6.65549 17.9139L7.272 18.8881L10.8033 17.6642C11.3541 17.4668 11.9558 17.4636 12.5087 17.6551L17.8525 19.4448C18.1645 19.5489 18.4298 19.7597 18.6018 20.0401L22.4176 18.063C22.7459 17.8917 23.1268 17.8508 23.484 17.9485C23.7494 18.0241 23.9865 18.1766 24.1656 18.3866C24.3446 18.5966 24.4576 18.8548 24.4903 19.1289C24.5231 19.4029 24.4741 19.6805 24.3495 19.9267C24.225 20.173 24.0304 20.377 23.7903 20.513L17.3248 24.2454C16.7914 24.6008 16.144 24.7426 15.5109 24.6427L10.7723 23.9582L10.5587 24.0827L10.7478 24.3814C10.7708 24.418 10.7865 24.4588 10.7937 24.5015C10.801 24.5441 10.7998 24.5878 10.7903 24.63C10.7807 24.6722 10.7629 24.7121 10.7378 24.7474C10.7128 24.7827 10.6811 24.8128 10.6445 24.8358L8.09487 26.4492C8.02092 26.4957 7.9315 26.511 7.8463 26.4916C7.76109 26.4723 7.68706 26.4198 7.64049 26.3459H7.6407ZM4.28164 19.8051L6.27445 18.544C7.52119 20.5143 8.76791 22.4845 10.0146 24.4548L8.0218 25.7158L4.28164 19.8051ZM20.8863 9.77018V5.89924H19.217V9.77393C19.7669 9.6543 20.3359 9.65302 20.8863 9.77018ZM15.5858 15.1509V8.62841H17.2552V10.8597C16.7105 11.4144 16.3422 12.1179 16.1968 12.8815C16.0514 13.6452 16.1353 14.4348 16.438 15.1509L15.5858 15.1509ZM11.9547 15.1509H13.624V7.51825H11.9547V15.1509ZM8.32346 15.1509H9.99284V9.71586H8.32346V15.1509ZM6.17148 15.8117H16.7965C17.1397 16.3211 17.5975 16.743 18.1331 17.0437C18.6687 17.3443 19.2673 17.5153 19.8809 17.543C20.4945 17.5706 21.106 17.4542 21.6666 17.203C22.2271 16.9518 22.7209 16.5728 23.1086 16.0964C23.4963 15.62 23.767 15.0594 23.8991 14.4596C24.0311 13.8597 24.0209 13.2373 23.8691 12.6421C23.7173 12.0469 23.4282 11.4956 23.025 11.0322C22.6218 10.5689 22.1157 10.2064 21.5472 9.97382V5.56877C21.5472 5.48113 21.5124 5.39707 21.4504 5.3351C21.3884 5.27312 21.3044 5.2383 21.2167 5.2383H18.8865C18.7989 5.2383 18.7148 5.27312 18.6529 5.3351C18.5909 5.39707 18.5561 5.48113 18.5561 5.56877V9.98127C18.3328 10.0738 18.1186 10.1868 17.9161 10.3188V8.29794C17.9161 8.21029 17.8813 8.12624 17.8193 8.06426C17.7573 8.00229 17.6732 7.96747 17.5856 7.96747H15.2553C15.2119 7.96747 15.169 7.97602 15.1289 7.99263C15.0888 8.00924 15.0524 8.03358 15.0217 8.06427C14.991 8.09495 14.9667 8.13138 14.9501 8.17148C14.9335 8.21157 14.9249 8.25454 14.9249 8.29794V15.1509H14.2849V7.18778C14.2849 7.14439 14.2763 7.10142 14.2597 7.06132C14.2431 7.02123 14.2188 6.9848 14.1881 6.95411C14.1574 6.92342 14.121 6.89908 14.0809 6.88247C14.0408 6.86586 13.9978 6.85731 13.9545 6.85731H11.6242C11.5365 6.85731 11.4525 6.89213 11.3905 6.95411C11.3285 7.01608 11.2937 7.10014 11.2937 7.18778V15.1509H10.6537V9.38528C10.6537 9.34189 10.6452 9.29892 10.6286 9.25883C10.612 9.21873 10.5876 9.18231 10.5569 9.15162C10.5262 9.12094 10.4898 9.0966 10.4497 9.08C10.4096 9.0634 10.3667 9.05486 10.3233 9.05487H7.99305C7.94965 9.05486 7.90668 9.0634 7.86659 9.08C7.82649 9.0966 7.79006 9.12094 7.75937 9.15162C7.72869 9.18231 7.70434 9.21873 7.68773 9.25883C7.67113 9.29892 7.66258 9.34189 7.66258 9.38528V15.1509H6.17148C6.12774 15.1504 6.08432 15.1585 6.04375 15.1749C6.00318 15.1912 5.96626 15.2155 5.93513 15.2462C5.904 15.277 5.87929 15.3136 5.86242 15.3539C5.84555 15.3943 5.83687 15.4376 5.83687 15.4814C5.83687 15.5251 5.84555 15.5684 5.86242 15.6088C5.87929 15.6491 5.904 15.6858 5.93513 15.7165C5.96626 15.7472 6.00318 15.7715 6.04375 15.7878C6.08432 15.8042 6.12774 15.8123 6.17148 15.8118V15.8117Z" fill="white"/>
</svg>
