<svg width="20" height="20" viewBox="0 0 20 20" fill="none" xmlns="http://www.w3.org/2000/svg">
<path d="M10.0775 0.00105382C11.3973 0.0111738 12.7021 0.282744 13.9166 0.800124C15.1311 1.31749 16.2313 2.07042 17.1537 3.01549C18.0761 3.96057 18.8025 5.07909 19.2909 6.30655C19.7794 7.53401 20.0203 8.8461 19.9997 10.1672C19.3219 23.3588 0.444192 23.2476 -0.000257669 10.0115C-0.00926767 8.6878 0.245822 7.37566 0.750062 6.15196C1.2543 4.92825 1.99753 3.81765 2.93618 2.88527C3.87483 1.95289 4.99 1.2175 6.21629 0.722234C7.44259 0.226964 8.75533 -0.0182162 10.0775 0.00105382ZM11.8947 8.3765C11.8947 8.3765 11.9108 8.3876 11.7886 8.5433C11.6664 8.699 11.4219 8.9437 11.2997 9.055L8.75533 11.5242C8.21083 12.0692 8.22193 12.4029 8.85533 12.8589C9.66643 13.4373 10.4886 13.9712 11.3219 14.5385C12.1553 15.1057 13.1775 15.9399 13.5997 14.7164C13.7073 14.3897 13.789 14.055 13.8442 13.7154C14.0219 12.7366 14.1997 11.7578 14.3553 10.7679C14.5664 9.3775 14.7664 7.98719 14.9442 6.58572C15.033 5.89611 14.6664 5.58467 13.9775 5.75151C13.6931 5.81843 13.4145 5.90768 13.1442 6.01846L5.88863 9.0772C5.19974 9.3664 4.51085 9.6778 3.83308 10.0115C3.66641 10.1005 3.4553 10.3452 3.46641 10.512C3.47752 10.6789 3.71086 10.868 3.89974 10.9458C4.36641 11.1349 4.86641 11.2684 5.3553 11.4241C5.72716 11.5516 6.12477 11.5847 6.51258 11.5207C6.90038 11.4566 7.26627 11.2973 7.57752 11.0571C8.49973 10.3897 9.44423 9.7668 10.3886 9.144C10.833 8.8436 11.1442 8.6768 11.5775 8.3765C11.7997 8.2653 11.8503 8.2145 11.8947 8.2812V8.3765Z" fill="white"/>
</svg>
