<svg width="28" height="27" viewBox="0 0 28 27" fill="none" xmlns="http://www.w3.org/2000/svg">
<path d="M18.5832 7.66699H9.4165C9.0851 7.66738 8.76738 7.7992 8.53305 8.03354C8.29871 8.26787 8.16689 8.58559 8.1665 8.91699V18.0837C8.16689 18.4151 8.29871 18.7328 8.53305 18.9671C8.76738 19.2015 9.0851 19.3333 9.4165 19.3337H18.5832C18.9146 19.3333 19.2323 19.2015 19.4666 18.9671C19.701 18.7328 19.8328 18.4151 19.8332 18.0837V8.91699C19.8328 8.58559 19.701 8.26787 19.4666 8.03354C19.2323 7.7992 18.9146 7.66738 18.5832 7.66699ZM18.9998 18.0837C18.9997 18.1941 18.9558 18.3 18.8777 18.3782C18.7995 18.4563 18.6936 18.5002 18.5832 18.5003H9.4165C9.30604 18.5002 9.20013 18.4563 9.12201 18.3782C9.0439 18.3 8.99996 18.1941 8.99984 18.0837V8.91699C8.99996 8.80652 9.0439 8.70061 9.12201 8.6225C9.20013 8.54439 9.30604 8.50045 9.4165 8.50033H18.5832C18.6936 8.50045 18.7995 8.54439 18.8777 8.6225C18.9558 8.70061 18.9997 8.80652 18.9998 8.91699V18.0837Z" fill="white"/>
<path d="M12.211 11.539C12.1723 11.5003 12.1264 11.4697 12.0758 11.4487C12.0253 11.4278 11.9711 11.417 11.9164 11.417C11.8616 11.417 11.8075 11.4278 11.7569 11.4487C11.7063 11.4697 11.6604 11.5003 11.6217 11.539L9.95505 13.2057C9.91636 13.2444 9.88567 13.2903 9.86473 13.3409C9.84379 13.3914 9.83301 13.4456 9.83301 13.5003C9.83301 13.5551 9.84379 13.6092 9.86473 13.6598C9.88567 13.7104 9.91636 13.7563 9.95505 13.795L11.6217 15.4616C11.6999 15.5398 11.8058 15.5837 11.9164 15.5837C12.0269 15.5837 12.1328 15.5398 12.211 15.4616C12.2891 15.3835 12.333 15.2775 12.333 15.167C12.333 15.0565 12.2891 14.9505 12.211 14.8724L10.839 13.5003L12.211 12.1283C12.2497 12.0896 12.2804 12.0437 12.3013 11.9931C12.3223 11.9426 12.333 11.8884 12.333 11.8337C12.333 11.779 12.3223 11.7248 12.3013 11.6742C12.2804 11.6237 12.2497 11.5777 12.211 11.539Z" fill="white"/>
<path d="M16.3778 11.539C16.3391 11.5003 16.2932 11.4697 16.2426 11.4487C16.1921 11.4278 16.1379 11.417 16.0832 11.417C16.0285 11.417 15.9743 11.4278 15.9237 11.4487C15.8732 11.4697 15.8272 11.5003 15.7885 11.539C15.7499 11.5777 15.7192 11.6237 15.6982 11.6742C15.6773 11.7248 15.6665 11.779 15.6665 11.8337C15.6665 11.8884 15.6773 11.9426 15.6982 11.9931C15.7192 12.0437 15.7499 12.0896 15.7885 12.1283L17.1606 13.5003L15.7885 14.8724C15.7104 14.9505 15.6665 15.0565 15.6665 15.167C15.6665 15.2775 15.7104 15.3835 15.7885 15.4616C15.8667 15.5398 15.9727 15.5837 16.0832 15.5837C16.1937 15.5837 16.2997 15.5398 16.3778 15.4616L18.0445 13.795C18.0832 13.7563 18.1139 13.7103 18.1348 13.6598C18.1558 13.6092 18.1665 13.5551 18.1665 13.5003C18.1665 13.4456 18.1558 13.3914 18.1348 13.3409C18.1139 13.2903 18.0832 13.2444 18.0445 13.2057L16.3778 11.539Z" fill="white"/>
<path d="M14.5177 11.4294C14.4105 11.4026 14.2971 11.4195 14.2023 11.4764C14.1076 11.5332 14.0393 11.6254 14.0125 11.7326L13.1792 15.0659C13.1655 15.1192 13.1624 15.1746 13.1702 15.229C13.178 15.2834 13.1965 15.3357 13.2246 15.383C13.2527 15.4302 13.2899 15.4714 13.334 15.5042C13.3781 15.537 13.4283 15.5608 13.4816 15.5741C13.535 15.5874 13.5904 15.5901 13.6448 15.5819C13.6991 15.5737 13.7513 15.5548 13.7983 15.5264C13.8454 15.4979 13.8863 15.4604 13.9188 15.4161C13.9513 15.3718 13.9747 15.3214 13.9876 15.268L14.821 11.9347C14.8342 11.8816 14.8369 11.8264 14.8288 11.7723C14.8208 11.7182 14.8021 11.6662 14.774 11.6192C14.7458 11.5723 14.7087 11.5314 14.6647 11.4988C14.6208 11.4663 14.5708 11.4427 14.5177 11.4294Z" fill="white"/>
<path d="M21.9167 11.4176C22.1751 11.4173 22.427 11.337 22.638 11.1878C22.849 11.0386 23.0086 10.8278 23.095 10.5843H24.4167C24.5041 10.5843 24.5894 10.5568 24.6603 10.5057C24.7313 10.4545 24.7843 10.3824 24.812 10.2994L25.5503 8.08431H26.0833C26.1938 8.08431 26.2998 8.04041 26.378 7.96227C26.4561 7.88413 26.5 7.77815 26.5 7.66764C26.5 7.55714 26.4561 7.45116 26.378 7.37301C26.2998 7.29487 26.1938 7.25098 26.0833 7.25098H25.25C25.1625 7.25097 25.0773 7.27848 25.0064 7.32961C24.9354 7.38075 24.8823 7.45291 24.8547 7.53587L24.1164 9.75098H23.095C23.0403 9.59619 22.9557 9.45369 22.846 9.33162C22.7362 9.20955 22.6035 9.11032 22.4554 9.03958C22.3072 8.96884 22.1466 8.92799 21.9827 8.91937C21.8188 8.91074 21.6547 8.93451 21.5 8.98931V8.08431C21.4993 7.59003 21.3232 7.11204 21.003 6.7355C20.6828 6.35896 20.2393 6.10833 19.7516 6.02827C19.8109 5.87257 19.8384 5.70658 19.8326 5.54008C19.8267 5.37358 19.7877 5.20993 19.7176 5.05876C19.6476 4.90759 19.548 4.77196 19.4248 4.65985C19.3015 4.54774 19.1571 4.46142 19 4.40598V1.41764C19 1.30714 18.9561 1.20116 18.878 1.12302C18.7998 1.04488 18.6938 1.00098 18.5833 1.00098C18.4728 1.00098 18.3668 1.04488 18.2887 1.12302C18.2106 1.20116 18.1667 1.30714 18.1667 1.41764V4.40598C18.0119 4.46063 17.8694 4.54525 17.7473 4.655C17.6252 4.76475 17.526 4.89749 17.4553 5.04562C17.3845 5.19375 17.3437 5.35437 17.3351 5.5183C17.3264 5.68222 17.3502 5.84624 17.405 6.00098H16.4283C16.4831 5.84624 16.5069 5.68222 16.4983 5.5183C16.4896 5.35437 16.4488 5.19375 16.3781 5.04562C16.3073 4.89749 16.2081 4.76475 16.086 4.655C15.964 4.54525 15.8215 4.46063 15.6667 4.40598V1.41764C15.6667 1.30714 15.6228 1.20116 15.5446 1.12302C15.4665 1.04488 15.3605 1.00098 15.25 1.00098C15.1395 1.00098 15.0335 1.04488 14.9554 1.12302C14.8772 1.20116 14.8333 1.30714 14.8333 1.41764V4.40598C14.6785 4.46063 14.536 4.54525 14.414 4.655C14.2919 4.76475 14.1927 4.89749 14.1219 5.04562C14.0512 5.19375 14.0103 5.35437 14.0017 5.5183C13.9931 5.68222 14.0169 5.84624 14.0717 6.00098H10.595C10.6498 5.84624 10.6736 5.68222 10.6649 5.5183C10.6563 5.35437 10.6155 5.19375 10.5447 5.04562C10.474 4.89749 10.3748 4.76475 10.2527 4.655C10.1306 4.54525 9.98812 4.46063 9.83333 4.40598V1.41764C9.83333 1.30714 9.78943 1.20116 9.71129 1.12302C9.63315 1.04488 9.52717 1.00098 9.41667 1.00098C9.30616 1.00098 9.20018 1.04488 9.12204 1.12302C9.0439 1.20116 9 1.30714 9 1.41764V4.40598C8.8429 4.46144 8.69848 4.54776 8.57525 4.65987C8.45201 4.77198 8.35245 4.90761 8.28241 5.05877C8.21237 5.20994 8.17329 5.37358 8.16744 5.54008C8.1616 5.70658 8.18912 5.87257 8.24839 6.02827C7.76064 6.10835 7.31717 6.35898 6.99698 6.73552C6.67678 7.11205 6.50066 7.59004 6.5 8.08431V8.98931C6.34526 8.93451 6.18125 8.91074 6.01732 8.91937C5.85339 8.92799 5.69277 8.96884 5.54464 9.03958C5.39651 9.11032 5.26378 9.20955 5.15402 9.33162C5.04427 9.45369 4.95965 9.59619 4.905 9.75098H3.88365L3.14526 7.53587C3.11761 7.45291 3.06455 7.38076 2.99361 7.32963C2.92267 7.2785 2.83745 7.25098 2.75 7.25098H1.91667C1.80616 7.25098 1.70018 7.29487 1.62204 7.37301C1.5439 7.45116 1.5 7.55714 1.5 7.66764C1.5 7.77815 1.5439 7.88413 1.62204 7.96227C1.70018 8.04041 1.80616 8.08431 1.91667 8.08431H2.44969L3.18807 10.2994C3.21573 10.3824 3.26878 10.4545 3.33972 10.5057C3.41066 10.5568 3.49589 10.5843 3.58333 10.5843H4.905C4.95965 10.7391 5.04427 10.8816 5.15402 11.0037C5.26378 11.1257 5.39651 11.225 5.54464 11.2957C5.69277 11.3664 5.85339 11.4073 6.01732 11.4159C6.18125 11.4245 6.34526 11.4008 6.5 11.346V12.3226C6.34526 12.2678 6.18125 12.2441 6.01732 12.2527C5.85339 12.2613 5.69277 12.3022 5.54464 12.3729C5.39651 12.4436 5.26378 12.5429 5.15402 12.665C5.04427 12.787 4.95965 12.9295 4.905 13.0843H1.91667C1.80616 13.0843 1.70018 13.1282 1.62204 13.2063C1.5439 13.2845 1.5 13.3905 1.5 13.501C1.5 13.6115 1.5439 13.7175 1.62204 13.7956C1.70018 13.8737 1.80616 13.9176 1.91667 13.9176H4.905C4.95965 14.0724 5.04427 14.2149 5.15402 14.337C5.26378 14.4591 5.39651 14.5583 5.54464 14.629C5.69277 14.6998 5.85339 14.7406 6.01732 14.7493C6.18125 14.7579 6.34526 14.7341 6.5 14.6793V15.656C6.34526 15.6012 6.18125 15.5774 6.01732 15.586C5.85339 15.5947 5.69277 15.6355 5.54464 15.7062C5.39651 15.777 5.26378 15.8762 5.15402 15.9983C5.04427 16.1204 4.95965 16.2629 4.905 16.4176H3.58333C3.49589 16.4176 3.41066 16.4452 3.33972 16.4963C3.26878 16.5474 3.21573 16.6196 3.18807 16.7025L2.44969 18.9176H1.91667C1.80616 18.9176 1.70018 18.9615 1.62204 19.0397C1.5439 19.1178 1.5 19.2238 1.5 19.3343C1.5 19.4448 1.5439 19.5508 1.62204 19.6289C1.70018 19.7071 1.80616 19.751 1.91667 19.751H2.75C2.83745 19.751 2.92267 19.7235 2.99361 19.6723C3.06455 19.6212 3.11761 19.549 3.14526 19.4661L3.88365 17.251H4.905C4.95965 17.4058 5.04427 17.5483 5.15402 17.6703C5.26378 17.7924 5.39651 17.8916 5.54464 17.9624C5.69277 18.0331 5.85339 18.074 6.01732 18.0826C6.18125 18.0912 6.34526 18.0674 6.5 18.0126V18.9176C6.50066 19.4119 6.67678 19.8899 6.99698 20.2664C7.31717 20.643 7.76064 20.8936 8.24839 20.9737C8.18912 21.1294 8.1616 21.2954 8.16744 21.4619C8.17329 21.6284 8.21237 21.792 8.28241 21.9432C8.35245 22.0943 8.45201 22.23 8.57525 22.3421C8.69848 22.4542 8.8429 22.5405 9 22.596V25.5843C9 25.6948 9.0439 25.8008 9.12204 25.8789C9.20018 25.9571 9.30616 26.001 9.41667 26.001C9.52717 26.001 9.63315 25.9571 9.71129 25.8789C9.78943 25.8008 9.83333 25.6948 9.83333 25.5843V22.596C9.98812 22.5413 10.1306 22.4567 10.2527 22.347C10.3748 22.2372 10.474 22.1045 10.5447 21.9563C10.6155 21.8082 10.6563 21.6476 10.6649 21.4837C10.6736 21.3197 10.6498 21.1557 10.595 21.001H14.0717C14.0169 21.1557 13.9931 21.3197 14.0017 21.4837C14.0103 21.6476 14.0512 21.8082 14.1219 21.9563C14.1927 22.1045 14.2919 22.2372 14.414 22.347C14.536 22.4567 14.6785 22.5413 14.8333 22.596V25.5843C14.8333 25.6948 14.8772 25.8008 14.9554 25.8789C15.0335 25.9571 15.1395 26.001 15.25 26.001C15.3605 26.001 15.4665 25.9571 15.5446 25.8789C15.6228 25.8008 15.6667 25.6948 15.6667 25.5843V22.596C15.8215 22.5413 15.964 22.4567 16.086 22.347C16.2081 22.2372 16.3073 22.1045 16.3781 21.9563C16.4488 21.8082 16.4896 21.6476 16.4983 21.4837C16.5069 21.3197 16.4831 21.1557 16.4283 21.001H17.405C17.3502 21.1557 17.3264 21.3197 17.3351 21.4837C17.3437 21.6476 17.3845 21.8082 17.4553 21.9563C17.526 22.1045 17.6252 22.2372 17.7473 22.347C17.8694 22.4567 18.0119 22.5413 18.1667 22.596V25.5843C18.1667 25.6948 18.2106 25.8008 18.2887 25.8789C18.3668 25.9571 18.4728 26.001 18.5833 26.001C18.6938 26.001 18.7998 25.9571 18.878 25.8789C18.9561 25.8008 19 25.6948 19 25.5843V22.596C19.1571 22.5405 19.3015 22.4542 19.4248 22.3421C19.548 22.23 19.6476 22.0944 19.7176 21.9432C19.7877 21.792 19.8267 21.6284 19.8326 21.4619C19.8384 21.2954 19.8109 21.1294 19.7516 20.9737C20.2393 20.8936 20.6828 20.643 21.003 20.2665C21.3232 19.8899 21.4993 19.4119 21.5 18.9176V18.0126C21.6547 18.0674 21.8188 18.0912 21.9827 18.0826C22.1466 18.074 22.3072 18.0331 22.4554 17.9624C22.6035 17.8916 22.7362 17.7924 22.846 17.6703C22.9557 17.5483 23.0403 17.4058 23.095 17.251H24.1164L24.8547 19.4661C24.8823 19.549 24.9354 19.6212 25.0064 19.6723C25.0773 19.7235 25.1625 19.751 25.25 19.751H26.0833C26.1938 19.751 26.2998 19.7071 26.378 19.6289C26.4561 19.5508 26.5 19.4448 26.5 19.3343C26.5 19.2238 26.4561 19.1178 26.378 19.0397C26.2998 18.9615 26.1938 18.9176 26.0833 18.9176H25.5503L24.812 16.7025C24.7843 16.6196 24.7313 16.5474 24.6603 16.4963C24.5894 16.4451 24.5041 16.4176 24.4167 16.4176H23.095C23.0403 16.2629 22.9557 16.1204 22.846 15.9983C22.7362 15.8762 22.6035 15.777 22.4554 15.7062C22.3072 15.6355 22.1466 15.5947 21.9827 15.586C21.8188 15.5774 21.6547 15.6012 21.5 15.656V14.6793C21.6547 14.7341 21.8188 14.7579 21.9827 14.7493C22.1466 14.7406 22.3072 14.6998 22.4554 14.629C22.6035 14.5583 22.7362 14.4591 22.846 14.337C22.9557 14.2149 23.0403 14.0724 23.095 13.9176H26.0833C26.1938 13.9176 26.2998 13.8737 26.378 13.7956C26.4561 13.7175 26.5 13.6115 26.5 13.501C26.5 13.3905 26.4561 13.2845 26.378 13.2063C26.2998 13.1282 26.1938 13.0843 26.0833 13.0843H23.095C23.0403 12.9295 22.9557 12.787 22.846 12.665C22.7362 12.5429 22.6035 12.4436 22.4554 12.3729C22.3072 12.3022 22.1466 12.2613 21.9827 12.2527C21.8188 12.2441 21.6547 12.2678 21.5 12.3226V11.346C21.6338 11.3935 21.7747 11.4177 21.9167 11.4176ZM21.9167 9.75098C21.9991 9.75098 22.0796 9.77541 22.1482 9.8212C22.2167 9.86698 22.2701 9.93206 22.3016 10.0082C22.3332 10.0843 22.3414 10.1681 22.3253 10.2489C22.3092 10.3298 22.2696 10.404 22.2113 10.4623C22.153 10.5205 22.0788 10.5602 21.998 10.5763C21.9171 10.5924 21.8334 10.5841 21.7572 10.5526C21.6811 10.5211 21.616 10.4677 21.5702 10.3991C21.5244 10.3306 21.5 10.2501 21.5 10.1676C21.5001 10.0572 21.5441 9.95127 21.6222 9.87315C21.7003 9.79504 21.8062 9.7511 21.9167 9.75098ZM6.08333 17.251C6.00092 17.251 5.92037 17.2265 5.85185 17.1808C5.78333 17.135 5.72992 17.0699 5.69838 16.9938C5.66685 16.9176 5.6586 16.8338 5.67467 16.753C5.69075 16.6722 5.73043 16.598 5.78871 16.5397C5.84698 16.4814 5.92122 16.4417 6.00205 16.4256C6.08287 16.4096 6.16665 16.4178 6.24278 16.4494C6.31892 16.4809 6.384 16.5343 6.42978 16.6028C6.47556 16.6713 6.5 16.7519 6.5 16.8343C6.49988 16.9448 6.45594 17.0507 6.37782 17.1288C6.29971 17.2069 6.1938 17.2509 6.08333 17.251ZM6.08333 13.9176C6.00092 13.9176 5.92037 13.8932 5.85185 13.8474C5.78333 13.8016 5.72992 13.7366 5.69838 13.6604C5.66685 13.5843 5.6586 13.5005 5.67467 13.4197C5.69075 13.3389 5.73043 13.2646 5.78871 13.2063C5.84698 13.1481 5.92122 13.1084 6.00205 13.0923C6.08287 13.0762 6.16665 13.0845 6.24278 13.116C6.31892 13.1476 6.384 13.201 6.42978 13.2695C6.47556 13.338 6.5 13.4186 6.5 13.501C6.49988 13.6114 6.45594 13.7174 6.37782 13.7955C6.29971 13.8736 6.1938 13.9175 6.08333 13.9176ZM6.08333 10.5843C6.00092 10.5843 5.92037 10.5599 5.85185 10.5141C5.78333 10.4683 5.72992 10.4032 5.69838 10.3271C5.66685 10.251 5.6586 10.1672 5.67467 10.0864C5.69075 10.0055 5.73043 9.93129 5.78871 9.87301C5.84698 9.81474 5.92122 9.77506 6.00205 9.75898C6.08287 9.74291 6.16665 9.75116 6.24278 9.78269C6.31892 9.81423 6.384 9.86763 6.42978 9.93616C6.47556 10.0047 6.5 10.0852 6.5 10.1676C6.49988 10.2781 6.45594 10.384 6.37782 10.4621C6.29971 10.5402 6.1938 10.5842 6.08333 10.5843ZM18.5833 5.16764C18.6657 5.16764 18.7463 5.19208 18.8148 5.23786C18.8833 5.28365 18.9367 5.34872 18.9683 5.42486C18.9998 5.50099 19.0081 5.58477 18.992 5.6656C18.9759 5.74642 18.9362 5.82067 18.878 5.87894C18.8197 5.93721 18.7454 5.97689 18.6646 5.99297C18.5838 6.00905 18.5 6.0008 18.4239 5.96926C18.3477 5.93772 18.2827 5.88432 18.2369 5.8158C18.1911 5.74728 18.1667 5.66672 18.1667 5.58431C18.1668 5.47384 18.2107 5.36793 18.2888 5.28982C18.367 5.21171 18.4729 5.16777 18.5833 5.16764ZM15.25 5.16764C15.3324 5.16764 15.413 5.19208 15.4815 5.23786C15.55 5.28365 15.6034 5.34872 15.6349 5.42486C15.6665 5.50099 15.6747 5.58477 15.6587 5.6656C15.6426 5.74642 15.6029 5.82067 15.5446 5.87894C15.4864 5.93721 15.4121 5.97689 15.3313 5.99297C15.2505 6.00905 15.1667 6.0008 15.0905 5.96926C15.0144 5.93772 14.9493 5.88432 14.9036 5.8158C14.8578 5.74728 14.8333 5.66672 14.8333 5.58431C14.8335 5.47384 14.8774 5.36793 14.9555 5.28982C15.0336 5.21171 15.1395 5.16777 15.25 5.16764ZM9.41667 5.16764C9.49908 5.16764 9.57963 5.19208 9.64815 5.23786C9.71667 5.28365 9.77008 5.34872 9.80162 5.42486C9.83315 5.50099 9.8414 5.58477 9.82533 5.6656C9.80925 5.74642 9.76957 5.82067 9.71129 5.87894C9.65302 5.93721 9.57878 5.97689 9.49795 5.99297C9.41713 6.00905 9.33335 6.0008 9.25722 5.96926C9.18108 5.93772 9.116 5.88432 9.07022 5.8158C9.02444 5.74728 9 5.66672 9 5.58431C9.00012 5.47384 9.04406 5.36793 9.12218 5.28982C9.20029 5.21171 9.3062 5.16777 9.41667 5.16764ZM9.41667 21.8343C9.33426 21.8343 9.2537 21.8099 9.18518 21.7641C9.11666 21.7183 9.06325 21.6532 9.03172 21.5771C9.00018 21.501 8.99193 21.4172 9.00801 21.3364C9.02408 21.2555 9.06377 21.1813 9.12204 21.123C9.18031 21.0647 9.25455 21.0251 9.33538 21.009C9.4162 20.9929 9.49998 21.0012 9.57612 21.0327C9.65225 21.0642 9.71733 21.1176 9.76311 21.1862C9.8089 21.2547 9.83333 21.3352 9.83333 21.4176C9.83321 21.5281 9.78927 21.634 9.71116 21.7121C9.63304 21.7902 9.52713 21.8342 9.41667 21.8343ZM15.25 21.8343C15.1676 21.8343 15.087 21.8099 15.0185 21.7641C14.95 21.7183 14.8966 21.6532 14.8651 21.5771C14.8335 21.501 14.8253 21.4172 14.8413 21.3364C14.8574 21.2555 14.8971 21.1813 14.9554 21.123C15.0136 21.0647 15.0879 21.0251 15.1687 21.009C15.2495 20.9929 15.3333 21.0012 15.4095 21.0327C15.4856 21.0642 15.5507 21.1176 15.5964 21.1862C15.6422 21.2547 15.6667 21.3352 15.6667 21.4176C15.6665 21.5281 15.6226 21.634 15.5445 21.7121C15.4664 21.7902 15.3605 21.8342 15.25 21.8343ZM18.5833 21.8343C18.5009 21.8343 18.4204 21.8099 18.3518 21.7641C18.2833 21.7183 18.2299 21.6532 18.1984 21.5771C18.1668 21.501 18.1586 21.4172 18.1747 21.3364C18.1908 21.2555 18.2304 21.1813 18.2887 21.123C18.347 21.0647 18.4212 21.0251 18.502 21.009C18.5829 20.9929 18.6666 21.0012 18.7428 21.0327C18.8189 21.0642 18.884 21.1176 18.9298 21.1862C18.9756 21.2547 19 21.3352 19 21.4176C18.9999 21.5281 18.9559 21.634 18.8778 21.7121C18.7997 21.7902 18.6938 21.8342 18.5833 21.8343ZM20.6667 18.9176C20.6663 19.249 20.5345 19.5668 20.3001 19.8011C20.0658 20.0354 19.7481 20.1673 19.4167 20.1676H8.58333C8.25193 20.1673 7.93421 20.0354 7.69988 19.8011C7.46554 19.5668 7.33372 19.249 7.33333 18.9176V8.08431C7.33372 7.75291 7.46554 7.43519 7.69988 7.20085C7.93421 6.96652 8.25193 6.8347 8.58333 6.83431H19.4167C19.7481 6.8347 20.0658 6.96652 20.3001 7.20085C20.5345 7.43519 20.6663 7.75291 20.6667 8.08431V18.9176ZM21.9167 16.4176C21.9991 16.4176 22.0796 16.4421 22.1482 16.4879C22.2167 16.5336 22.2701 16.5987 22.3016 16.6749C22.3332 16.751 22.3414 16.8348 22.3253 16.9156C22.3092 16.9964 22.2696 17.0707 22.2113 17.1289C22.153 17.1872 22.0788 17.2269 21.998 17.243C21.9171 17.259 21.8334 17.2508 21.7572 17.2193C21.6811 17.1877 21.616 17.1343 21.5702 17.0658C21.5244 16.9973 21.5 16.9167 21.5 16.8343C21.5001 16.7238 21.5441 16.6179 21.6222 16.5398C21.7003 16.4617 21.8062 16.4178 21.9167 16.4176ZM21.9167 13.0843C21.9991 13.0843 22.0796 13.1087 22.1482 13.1545C22.2167 13.2003 22.2701 13.2654 22.3016 13.3415C22.3332 13.4177 22.3414 13.5014 22.3253 13.5823C22.3092 13.6631 22.2696 13.7373 22.2113 13.7956C22.153 13.8539 22.0788 13.8936 21.998 13.9096C21.9171 13.9257 21.8334 13.9175 21.7572 13.8859C21.6811 13.8544 21.616 13.801 21.5702 13.7325C21.5244 13.6639 21.5 13.5834 21.5 13.501C21.5001 13.3905 21.5441 13.2846 21.6222 13.2065C21.7003 13.1284 21.8062 13.0844 21.9167 13.0843Z" fill="white"/>
</svg>
